<?xml version="1.0" encoding="utf-8"?>
<!-- Svg Vector Icons : http://www.onlinewebfonts.com/icon -->
<!DOCTYPE svg PUBLIC "-//W3C//DTD SVG 1.1//EN" "http://www.w3.org/Graphics/SVG/1.1/DTD/svg11.dtd">
<svg fill="#ffffff" version="1.1" xmlns="http://www.w3.org/2000/svg" xmlns:xlink="http://www.w3.org/1999/xlink" x="0px" y="0px" viewBox="0 0 1000 1000" enable-background="new 0 0 1000 1000" xml:space="preserve">
<metadata> Svg Vector Icons : http://www.onlinewebfonts.com/icon </metadata>
<g><path d="M893.8,229.1l57.3-19.3l-34.5-102.4l-57.3,19.3l-10.1-13.3l26.2-52.9l-93-46.1l-26.2,52.9l-16.7,0.1L720.2,10L617.8,44.5l19.3,57.3l-13.3,10.1l-52.9-26.2L544,140.1H83.2c-18.9,0-34.3,15.4-34.3,34.3v727.4c0,18.9,15.4,34.3,34.3,34.3h89.4c-3.4,17.6-5.1,35.6-5.1,53.9h33.6c0-137.9,112.2-250,250-250c137.9,0,250,112.2,250,250h33.6c0-18.3-1.7-36.3-5.1-53.9h79.9c18.9,0,34.3-15.4,34.3-34.3V409.5l9.8-3.3l-19.3-57.3l13.3-10.1l52.9,26.2l46.1-93l-52.9-26.2L893.8,229.1z M312.9,558.8c0-76.3,62-138.3,138.3-138.3s138.3,62,138.3,138.3s-62,138.3-138.3,138.3S312.9,635.1,312.9,558.8z M810.4,901.8c0,0.4-0.3,0.7-0.7,0.7h-88.6c-13.6-42.2-37.1-80.8-69.4-113.1c-36.4-36.4-80.9-61.6-129.5-74.1c59.4-27.1,100.8-87,100.8-156.5c0-94.8-77.1-171.9-171.9-171.9c-94.8,0-171.9,77.1-171.9,171.9c0,69.4,41.4,129.4,100.8,156.5c-48.6,12.5-93.1,37.7-129.5,74.1c-32.2,32.2-55.8,70.9-69.4,113.1h-98c-0.4,0-0.7-0.3-0.7-0.7V174.4c0-0.4,0.3-0.7,0.7-0.7h444.1l-2.5,5l52.9,26.2l0.1,16.7L520.4,241L555,343.3l57.3-19.3l10.1,13.3l-26.2,52.9l93,46.1l26.2-52.9l16.7-0.1l19.3,57.3l59-19.9L810.4,901.8L810.4,901.8z M885.5,320l-41.4-20.5l-49.2,37.2l16.3,48.4l-38.7,13l-16.3-48.4l-61.7,0.2l-20.5,41.4l-32.8-16.2l20.5-41.4l-37.2-49.2l-48.4,16.3l-13-38.7l48.4-16.3l-0.2-61.7l-41.4-20.5l16.2-32.8l41.4,20.5l49.2-37.2l-16.3-48.4l38.7-13l16.3,48.4l61.7-0.2l20.5-41.4l32.8,16.2L809.9,117l37.2,49.2l48.4-16.3l13,38.7L860.1,205l0.2,61.7l41.4,20.5L885.5,320z"/><path d="M735.8,164.1c-6.7,0-13.2,1.1-19.6,3.2c-15.5,5.2-28.1,16.2-35.3,30.9s-8.4,31.3-3.2,46.8c8.4,24.9,31.7,41.7,58.1,41.7l0,0c6.7,0,13.2-1.1,19.6-3.2c15.5-5.2,28.1-16.2,35.3-30.9c7.3-14.7,8.4-31.3,3.2-46.8C785.4,180.8,762.1,164.1,735.8,164.1z M760.6,237.6c-3.3,6.6-8.9,11.6-16,13.9c-2.9,1-5.9,1.5-8.8,1.5c-11.9,0-22.4-7.6-26.2-18.8c-2.4-7-1.9-14.5,1.4-21.1c3.3-6.6,8.9-11.6,16-13.9c2.9-1,5.9-1.5,8.8-1.5c11.9,0,22.4,7.6,26.2,18.8C764.4,223.5,763.9,231,760.6,237.6z"/></g>
</svg>